PathFileType  4	(X/Y/Z) C:\Users\antoi\Documents\MyRepositories\mobilecap\ResultsAnalysis
DataRate	CameraRate	NumFrames	NumMarkers	Units	OrigDataRate	OrigDataStartFrame	OrigNumFrames
100.0	100.0	5	51	mm	100.0	33	259
Frame#	Time	r_knee			r_shank_antsup			r_ankle			r_calc			r_5meta			r_toe			L_knee			L_shank_antsup			L_ankle			L_calc			L_5meta			L_toe			r_sh2			r_sh3			r_sh4			L_sh2			L_sh3			r_thigh1			r_thigh2			r_thigh3			r_thigh4			r_thigh5			L_thigh1			L_thigh2			L_thigh3			L_thigh4			r.ASIS			r.PSIS			L.ASIS			L.PSIS			C7			R_Shoulder			L_Shoulder			R_Sternum			L_Sternum			R_humerus			R_elbow_med			R_elbow_lat			R_forearm			R_wrist_radius			R_wrist_ulna			L_humerus			L_elbow_med			L_elbow_lat			L_forearm			L_wrist_radius			L_wrist_ulna			R_HJC			L_HJC			R_HJC_reg			L_HJC_reg			
		X1	Y1	Z1	X2	Y2	Z2	X3	Y3	Z3	X4	Y4	Z4	X5	Y5	Z5	X6	Y6	Z6	X7	Y7	Z7	X8	Y8	Z8	X9	Y9	Z9	X10	Y10	Z10	X11	Y11	Z11	X12	Y12	Z12	X13	Y13	Z13	X14	Y14	Z14	X15	Y15	Z15	X16	Y16	Z16	X17	Y17	Z17	X18	Y18	Z18	X19	Y19	Z19	X20	Y20	Z20	X21	Y21	Z21	X22	Y22	Z22	X23	Y23	Z23	X24	Y24	Z24	X25	Y25	Z25	X26	Y26	Z26	X27	Y27	Z27	X28	Y28	Z28	X29	Y29	Z29	X30	Y30	Z30	X31	Y31	Z31	X32	Y32	Z32	X33	Y33	Z33	X34	Y34	Z34	X35	Y35	Z35	X36	Y36	Z36	X37	Y37	Z37	X38	Y38	Z38	X39	Y39	Z39	X40	Y40	Z40	X41	Y41	Z41	X42	Y42	Z42	X43	Y43	Z43	X44	Y44	Z44	X45	Y45	Z45	X46	Y46	Z46	X47	Y47	Z47	X48	Y48	Z48	X49	Y49	Z49	X50	Y50	Z50	X51	Y51	Z51	

33	0.32000000	-1129.08267	849.72669	-413.40664	-1110.95477	724.21203	-422.92734	-1246.87225	407.54741	-428.71732	-1312.27604	374.94794	-481.59418	-1118.91442	341.85783	-380.51063	-1077.60754	364.73956	-453.90038	-1160.51276	843.18339	-751.66672	-1125.44903	732.48651	-735.09273	-1257.42352	405.53976	-731.29491	-1318.45049	377.28706	-681.12433	-1117.65450	344.24951	-768.83632	-1082.30899	367.01378	-701.33289	-1128.30457	611.24608	-444.65446	-1174.05431	723.99328	-374.59863	-1182.96300	607.08098	-379.47403	-1205.70148	744.65577	-775.26259	-1202.34446	623.80655	-788.94025	-1043.39785	1082.94942	-435.17869	-1041.79507	972.04011	-447.53755	-1066.83569	941.80798	-392.02850	-1121.57088	1070.85135	-352.27763	-1118.71203	953.11109	-377.15222	-1092.27099	1095.61882	-770.07561	-1079.97867	959.10047	-756.17732	-1200.93770	1081.64721	-797.65354	-1188.31504	945.03110	-779.06686	-1063.91778	1325.48418	-441.54838	-1248.76770	1429.22166	-514.58102	-1079.78026	1318.98681	-704.16366	-1258.18733	1426.91132	-614.56565	-1002.76748	1870.05865	-574.45002	-961.47113	1786.18860	-389.90956	-957.64155	1800.30300	-748.21282	-901.60090	1742.85736	-551.31763	-905.06301	1740.56456	-596.29610	-1030.01355	1638.87127	-306.82796	-1213.90757	1493.06276	-319.79342	-1175.85833	1502.45996	-247.77480	-1139.33619	1329.07706	-245.75213	-1147.98628	1207.47198	-237.56311	-1178.68972	1208.57802	-209.16143	-1027.59165	1652.99903	-844.96683	-1194.56069	1498.33393	-820.31202	-1158.94876	1505.53654	-893.26119	-1102.25411	1345.12912	-876.64953	-1098.40977	1227.61780	-902.63034	-1129.28988	1234.29993	-937.99971	-1171.07267	1279.52095	-468.26602	-1185.86132	1263.54032	-680.54413	-1160.40033	1278.22048	-468.90619	-1176.68869	1274.22566	-641.78931	
34	0.33000000	-1127.48480	849.61242	-413.10661	-1109.43930	724.17510	-422.66805	-1246.66662	407.81897	-428.66560	-1312.26496	375.26691	-481.39247	-1118.83324	341.85286	-380.49258	-1077.50966	364.64779	-453.88805	-1159.77971	843.01930	-752.14267	-1124.77657	732.26466	-735.41886	-1257.31041	405.60021	-731.40299	-1318.40176	377.39479	-681.19355	-1117.64823	344.18501	-768.86475	-1082.25992	366.92504	-701.38036	-1127.20378	611.37183	-444.74151	-1172.38070	724.25051	-374.42057	-1181.82064	607.23938	-379.25128	-1205.02562	744.57294	-775.69128	-1201.92365	623.70234	-789.14403	-1042.75236	1082.54619	-436.03166	-1040.66894	972.11921	-447.15031	-1065.63891	941.65791	-392.16811	-1120.60238	1070.59974	-352.13645	-1117.43762	952.98429	-376.99088	-1091.87586	1095.38141	-770.60704	-1079.38607	958.87550	-756.82634	-1200.36715	1081.41674	-797.91649	-1187.79061	944.80822	-779.40265	-1063.47705	1324.72731	-442.10599	-1247.53062	1429.68575	-514.85975	-1079.00753	1318.26745	-704.85886	-1256.87905	1427.35207	-615.27722	-997.58448	1868.39026	-575.02560	-956.70372	1784.24655	-390.35611	-952.67794	1798.40995	-748.72520	-897.66820	1739.78829	-552.94280	-900.81002	1737.83013	-596.94803	-1027.14249	1637.92720	-307.09460	-1212.99536	1494.73211	-320.15774	-1174.96819	1503.54985	-248.05414	-1140.29779	1329.82222	-246.35218	-1150.31099	1208.23685	-238.46530	-1181.01065	1209.59973	-210.14510	-1023.78455	1651.69463	-845.57300	-1191.94412	1498.40965	-820.50730	-1156.40641	1505.25072	-893.70336	-1101.18663	1344.37990	-877.33713	-1098.60315	1226.77617	-903.24512	-1129.45533	1233.86185	-938.83209	-1170.80194	1279.41138	-468.85348	-1185.58272	1263.57566	-681.14302	-1160.23721	1278.12972	-469.57123	-1176.34186	1274.10999	-642.54832	
35	0.34000000	-1124.99446	848.61101	-413.47536	-1107.56719	724.11008	-422.35648	-1246.41482	408.21800	-428.62520	-1312.20349	375.64125	-481.29416	-1118.73318	341.82160	-380.43899	-1077.38672	364.54280	-453.90102	-1158.63275	842.86196	-752.80794	-1123.74394	731.95486	-735.71841	-1257.14871	405.68860	-731.55939	-1318.34107	377.50346	-681.21386	-1117.59675	344.12752	-768.93275	-1082.19664	366.83262	-701.46097	-1125.83562	611.42244	-444.57589	-1170.04974	724.57548	-374.25557	-1180.35002	607.50282	-378.95587	-1204.04273	744.46880	-776.18372	-1201.09401	623.49770	-789.41960	-1041.94302	1082.36012	-436.62549	-1039.28293	972.20893	-446.85381	-1064.19729	941.59937	-392.34263	-1119.25368	1070.44306	-351.91810	-1115.96107	952.78136	-376.94779	-1091.24917	1095.20618	-771.21045	-1078.55267	958.64576	-757.25929	-1199.68650	1081.27062	-798.34425	-1186.94927	944.55893	-779.80210	-1063.04317	1323.95514	-442.51274	-1246.33999	1430.25475	-515.02929	-1078.27608	1317.47647	-705.47491	-1255.46555	1427.77262	-615.79588	-992.46385	1866.59137	-575.52077	-951.94730	1782.27944	-390.87419	-947.70668	1796.39742	-749.20389	-893.58896	1737.21874	-553.80556	-896.45489	1734.97153	-597.51926	-1024.23161	1636.92587	-307.35039	-1212.08625	1496.28262	-320.57796	-1173.97616	1504.55892	-248.45172	-1141.10613	1330.48068	-247.08506	-1152.40039	1208.92235	-239.44083	-1183.07405	1210.60226	-211.13896	-1019.88403	1650.21705	-846.00601	-1189.27252	1498.37588	-820.91060	-1153.73714	1504.88991	-894.01378	-1100.00125	1343.49471	-877.81551	-1098.61153	1225.90067	-903.80799	-1129.39954	1233.29460	-939.40325	-1170.56239	1279.33413	-469.28409	-1185.36367	1263.59857	-681.57969	-1160.27129	1278.15137	-470.16700	-1175.95118	1273.88640	-643.30444	
36	0.35000000	-1122.23326	847.74813	-413.72811	-1105.29055	723.93110	-422.03084	-1246.06307	408.80619	-428.42715	-1312.13302	375.97988	-481.15575	-1118.63306	341.72952	-380.46265	-1077.24188	364.46238	-453.92549	-1157.20701	842.59519	-753.27059	-1122.35643	731.57792	-736.04257	-1256.96859	405.79379	-731.66685	-1318.25601	377.65575	-681.19933	-1117.49670	344.10127	-769.03543	-1082.10196	366.77858	-701.53451	-1124.24293	611.24544	-444.07408	-1167.57669	724.77770	-373.98960	-1178.62408	607.68476	-378.75051	-1202.59429	744.37672	-776.75319	-1199.92565	623.29682	-789.84926	-1040.96170	1082.44880	-436.88202	-1037.68842	972.22052	-447.01673	-1062.35584	941.65726	-392.35637	-1117.74971	1070.36115	-351.77534	-1114.17820	952.41529	-377.01282	-1090.34525	1095.18069	-771.63908	-1077.39849	958.51153	-757.57141	-1198.83329	1080.94567	-798.75439	-1185.73982	944.30659	-780.50312	-1062.62318	1323.09778	-442.75267	-1245.12930	1430.67126	-515.38599	-1077.59712	1316.60244	-705.90067	-1253.98045	1428.10973	-616.26707	-987.31037	1864.66004	-575.87978	-947.18393	1780.19466	-391.45806	-942.72943	1794.23579	-749.55186	-889.27310	1734.89335	-554.01316	-892.12006	1732.25196	-598.02956	-1021.25088	1635.85824	-307.52466	-1211.37735	1497.74012	-320.84813	-1172.90153	1505.48026	-248.85738	-1141.76219	1331.04831	-247.79465	-1154.23643	1209.51405	-240.56877	-1184.82719	1211.49260	-212.10226	-1015.90114	1648.56286	-846.35897	-1186.54117	1498.21644	-821.44947	-1150.89820	1504.39698	-894.36678	-1098.66254	1342.45589	-878.06693	-1098.36858	1224.84124	-904.22654	-1129.22978	1232.34470	-939.58593	-1170.37413	1279.18741	-469.64163	-1185.09223	1263.49884	-681.94646	-1160.32949	1277.98813	-470.64930	-1175.53337	1273.58785	-643.93956	
37	0.36000000	-1119.31093	847.45426	-413.43717	-1102.68754	723.62210	-421.74054	-1245.58928	409.53253	-428.03104	-1312.01801	376.29453	-480.96468	-1118.55348	341.59010	-380.54345	-1077.10632	364.41283	-453.88958	-1155.43473	842.22865	-753.57555	-1120.66605	731.13946	-736.41254	-1256.77927	405.91958	-731.71937	-1318.16187	377.86610	-681.19186	-1117.39741	344.09649	-769.13291	-1081.99340	366.74269	-701.57240	-1122.42738	610.88519	-443.66157	-1165.18022	724.78546	-373.50894	-1176.73107	607.72393	-378.59030	-1200.66509	744.28791	-777.35987	-1198.53508	623.14408	-790.28260	-1039.80338	1082.64131	-437.08972	-1035.78634	972.16984	-447.57047	-1060.06327	941.72051	-392.26361	-1116.18435	1070.11623	-351.77962	-1111.84748	952.11414	-376.87597	-1089.19615	1095.04951	-771.97510	-1075.84239	958.37783	-757.99370	-1197.70689	1080.39170	-799.00711	-1184.18616	943.84244	-781.09339	-1062.21774	1322.10891	-442.93854	-1243.87782	1430.84959	-515.97822	-1076.81059	1315.58268	-706.21530	-1252.45157	1428.35465	-616.78134	-982.14834	1862.63627	-576.25778	-942.48267	1777.99057	-391.99400	-937.77651	1791.94394	-749.83408	-884.92648	1732.27719	-554.30358	-887.84456	1729.55223	-598.53506	-1018.26217	1634.62860	-307.79556	-1210.77052	1498.99186	-321.03492	-1171.70252	1506.20421	-249.31218	-1142.15458	1331.56344	-248.32313	-1155.80062	1209.95433	-241.83919	-1186.29792	1212.18170	-213.01848	-1011.88530	1646.79005	-846.74788	-1183.60378	1497.81229	-821.89874	-1147.92867	1503.67606	-894.80143	-1097.10250	1341.30643	-878.41165	-1097.84324	1223.63837	-904.41964	-1128.89744	1231.06018	-939.73385	-1170.20685	1278.90094	-470.02934	-1184.68286	1263.24152	-682.35294	-1160.28731	1277.50306	-471.12215	-1175.03610	1273.21140	-644.52584	
